Coordinates
version=1
nRows=12
nColumns=24
inDegrees=yes

Units are S.I. units (second, meters, Newtons, ...)
Angles are in degrees.

endheader
time	pelvis_tilt	pelvis_list	pelvis_rotation	pelvis_tx	pelvis_ty	pelvis_tz	hip_flexion_r	hip_adduction_r	hip_rotation_r	knee_angle_r	ankle_angle_r	subtalar_angle_r	mtp_angle_r	hip_flexion_l	hip_adduction_l	hip_rotation_l	knee_angle_l	ankle_angle_l	subtalar_angle_l	mtp_angle_l	lumbar_extension	lumbar_bending	lumbar_rotation
      2.44000000	     -9.16265452	      3.41858397	    358.35038597	     -0.72239616	      1.36794663	     -0.98523992	      2.27798757	     -0.85616793	      8.86485890	    -15.74277852	     11.96384042	     -6.12006372	      5.15824801	     27.16543571	      2.53781889	     -5.60993301	      0.95514574	     -8.85322807	      3.86019879	     31.18168609	     -5.52119504	      0.01875965	     16.44355955
      2.44500000	     -9.20774792	      3.50129320	    358.36475562	     -0.71716301	      1.36739032	     -0.98592154	      2.02380670	     -0.99722955	      8.81446924	    -15.79855363	     12.03604917	     -6.05302394	      5.24023449	     27.34284815	      2.66628249	     -5.21420880	      0.13366970	     -9.00153442	      2.66434556	     30.85090846	     -5.46203085	     -0.12348186	     16.39966730
      2.45000000	     -9.24343443	      3.58591066	    358.37286429	     -0.71191249	      1.36687283	     -0.98660071	      1.77523274	     -1.13777074	      8.76743661	    -15.88226583	     12.07722346	     -5.99164161	      5.38856333	     27.48667252	      2.80283136	     -4.87140460	     -0.63927074	     -9.17887160	      1.64105146	     30.59020376	     -5.41638564	     -0.26483907	     16.35010429
      2.45500000	     -9.26405343	      3.68132199	    358.36011395	     -0.70665132	      1.36641509	     -0.98726760	      1.53299756	     -1.28513076	      8.76159171	    -16.00816228	     12.08498360	     -5.94232948	      5.52709409	     27.57900845	      2.95061646	     -4.55592622	     -1.33513495	     -9.42145747	      0.67705114	     30.35493712	     -5.38824265	     -0.41830946	     16.32299534
      2.46000000	     -9.31220170	      3.77624324	    358.38404656	     -0.70135383	      1.36596783	     -0.98799446	      1.33679747	     -1.43255589	      8.70567568	    -16.17347785	     12.06128274	     -5.89771855	      5.70396813	     27.67807905	      3.12274537	     -4.19025864	     -1.96908196	     -9.73344733	     -0.23033426	     30.17995284	     -5.32496757	     -0.57070484	     16.25226335
      2.46500000	     -9.39321870	      3.87242415	    358.39879135	     -0.69604398	      1.36555052	     -0.98872495	      1.21013785	     -1.57557880	      8.67322674	    -16.40104446	     11.99397801	     -5.86406404	      5.91815657	     27.78213654	      3.29693068	     -3.83737653	     -2.52810459	    -10.10117004	     -1.06281171	     30.06933867	     -5.22638714	     -0.71725009	     16.17971896
      2.47000000	     -9.44670419	      3.95879542	    358.42477610	     -0.69076410	      1.36520402	     -0.98951238	      1.08601491	     -1.70977998	      8.60865979	    -16.68598298	     11.89705797	     -5.82560252	      6.20072853	     27.83615133	      3.47714742	     -3.47842726	     -3.02727170	    -10.50155147	     -1.83694340	     30.05086719	     -5.16980170	     -0.84360894	     16.11216298
      2.47500000	     -9.50356405	      4.06622187	    358.44428867	     -0.68544087	      1.36493506	     -0.99028794	      0.99894116	     -1.86247635	      8.55956345	    -17.03346561	     11.74328085	     -5.79548261	      6.52078979	     27.85320794	      3.67862270	     -3.12730078	     -3.44008647	    -10.93604476	     -2.51608650	     30.09321994	     -5.10216024	     -0.99835766	     16.04194426
      2.48000000	     -9.55745569	      4.17226324	    358.47699485	     -0.68011751	      1.36472643	     -0.99111009	      0.94734225	     -2.01403885	      8.48546330	    -17.45381679	     11.54624373	     -5.75279410	      6.90424808	     27.84592910	      3.89014799	     -2.75446285	     -3.80311926	    -11.38520090	     -3.12766877	     30.19674558	     -5.04174163	     -1.14854130	     15.97012780
      2.48500000	     -9.63629458	      4.27914668	    358.50543222	     -0.67476413	      1.36457297	     -0.99194844	      0.97300189	     -2.16314431	      8.40712873	    -17.96506758	     11.29003413	     -5.70478229	      7.33041665	     27.83842488	      4.10275930	     -2.38731091	     -4.11492772	    -11.82287251	     -3.66341324	     30.32179756	     -4.94497007	     -1.29533445	     15.90444022
      2.49000000	     -9.69074297	      4.37986690	    358.54251604	     -0.66944422	      1.36450606	     -0.99283076	      1.01666156	     -2.30756625	      8.30790840	    -18.55480814	     10.98985652	     -5.63879264	      7.83043469	     27.80113136	      4.31740881	     -1.99685440	     -4.41917013	    -12.25829793	     -4.16625383	     30.46606292	     -4.88833833	     -1.42671292	     15.83566125
      2.49500000	     -9.73308809	      4.49244640	    358.58308531	     -0.66407712	      1.36452945	     -0.99373734	      1.09230432	     -2.46680154	      8.19237651	    -19.22388622	     10.62325538	     -5.54720158	      8.39712710	     27.72631169	      4.54861722	     -1.59479045	     -4.68909131	    -12.66359148	     -4.62729996	     30.58022286	     -4.83534224	     -1.57555677	     15.77466808
